<svg version="1" xmlns="http://www.w3.org/2000/svg" width="682.667" height="682.667" viewBox="0 0 512.000000 512.000000"><path d="M232.5 6.6c-1.6.2-6.6.9-11 1.5C170 14.9 120.3 38.9 82.1 75.6 60.4 96.4 44 118.9 30.4 146.5 12.8 182.4 5 216.2 5 256.5c0 40.9 7.8 74.3 26.1 111.2 4.9 10.1 9.3 18.3 9.7 18.3 1.3 0 14.9-21.3 19.5-30.5 7-14.1 12-29.2 14.1-43 .6-3.7.4-4.2-2.8-6.4-3.9-2.6-7.5-9.1-8.3-15.1-1-7.1 4.3-17.2 10.7-20.5 2.6-1.4 2.7-1.7 3.3-12.2 1.1-22.8 6.9-38.7 18.6-51.2 1.8-1.9 3-3.5 2.8-3.7-.2-.2-11-4-24.1-8.4-13-4.4-25-8.7-26.6-9.5-4-2.1-5.5-5.1-4.1-8.1 1.3-3 3.8-4.2 20.6-9.9 7.7-2.6 34.5-11.7 59.5-20.2s48.7-16.5 52.5-17.8c3.9-1.2 23.7-8 44-15 20.4-6.9 37.8-12.9 38.7-13.2.9-.3 11 2.7 22.5 6.7 11.4 4 27.1 9.4 34.8 12 7.7 2.7 20.5 7.1 28.5 9.9 8 2.7 39.5 13.6 70 24.1 30.5 10.5 56.9 19.9 58.5 20.9 4 2.3 4.2 7.5.5 10.2-1.4 1.1-19.4 7.7-40 14.8-20.6 7.1-67 23.1-103.1 35.5-36.1 12.4-67 22.6-68.6 22.6-1.6 0-5.6-.9-8.9-2.1-13.2-4.6-91.4-31.2-97.2-33-3.5-1.1-6.2-2.2-6-2.4.1-.1 25.9-10.5 57.3-23s58-23.7 59.2-24.8c3.1-2.8 3.9-7.7 1.9-11.6-1.9-3.6-6.9-6.5-10-5.8-1.1.3-19.4 7.5-40.6 16.1-21.2 8.7-51.3 20.9-67 27.2-15.7 6.4-30.3 12.7-32.4 14.2-11.6 7.9-20.8 28.4-22.2 49.2l-.6 8.5 3.9 4.1c8.2 8.6 8.3 20.6.2 29l-3 3.1 1.3 20.7c2 34.4-1 53.3-10.7 67.6-4.4 6.5-11.2 12.5-18.1 16.1-3.3 1.7-4 1.7-7.2.3-1.9-.8-3.7-1.2-4-.9-.8.8 13.7 17.2 24.4 27.4 38.2 36.5 84.4 58.8 139.4 67.3 11.4 1.8 56.6 1.8 68 0 45.5-7.1 83-22.6 117.8-48.9 31.3-23.7 56.1-53.9 73.8-89.8 17.6-35.9 25.4-69.7 25.4-110s-7.8-74.1-25.4-110C445 72.1 377.9 22.6 294 8.4c-9.1-1.5-53.9-2.9-61.5-1.8zM400 274.2v36.3l-3 5.2c-1.6 2.8-4.2 6-5.7 7.1-4.6 3.3-19 10.2-30.7 14.7-70.6 27.6-149.4 25.9-212.1-4.4-13.3-6.4-14.2-7-16.5-11.3l-2.4-4.6 2.6-4c4-6 6.2-14.5 5.4-21.4-.6-6.4-4.4-15.4-7.6-18.3-1.8-1.7-2-3.1-2-17.7 0-8.7.1-15.8.3-15.8 1.1 0 78.6 26.2 115.2 39 8.3 2.9 16.1 5.4 17.5 5.6 1.6.3 28.1-8.4 70-23 37.1-12.9 67.8-23.5 68.3-23.5.4-.1.7 16.2.7 36.1z"/></svg>